<?xml version="1.0" standalone="no"?>
<!DOCTYPE svg PUBLIC "-//W3C//DTD SVG 20010904//EN"
 "http://www.w3.org/TR/2001/REC-SVG-20010904/DTD/svg10.dtd">
<svg version="1.0" xmlns="http://www.w3.org/2000/svg"
 width="900.000000pt" height="460.000000pt" viewBox="0 0 900.000000 460.000000"
 preserveAspectRatio="xMidYMid meet">
<metadata>
Created by potrace 1.15, written by Peter Selinger 2001-2017
</metadata>
<g transform="translate(0.000000,460.000000) scale(0.100000,-0.100000)"
fill="#000000" stroke="none">
<path d="M908 4078 c-86 -112 -260 -338 -387 -503 -127 -165 -231 -303 -231
-307 0 -5 362 -8 805 -8 l805 0 0 -1455 0 -1455 610 0 610 0 0 1455 0 1455
1908 0 c2046 0 1958 2 2095 -50 112 -42 171 -130 148 -218 -22 -79 -109 -140
-256 -178 -66 -17 -165 -18 -1837 -21 l-1768 -4 0 -1219 0 -1220 1718 0 c1806
0 1865 1 2116 45 328 57 626 168 859 321 123 80 299 252 372 364 58 89 107
193 130 275 25 92 31 294 11 393 -33 164 -122 324 -258 468 l-70 74 67 72 c89
96 177 232 215 330 50 128 63 214 58 368 -4 122 -8 145 -40 237 -188 545 -813
911 -1663 973 -77 6 -1302 10 -2996 10 l-2866 0 -155 -202z m6080 -2309 c196
-21 359 -74 407 -131 39 -47 35 -101 -12 -148 -44 -43 -110 -70 -250 -102
l-98 -22 -1202 -3 -1203 -4 0 211 0 210 1130 0 c724 0 1166 -4 1228 -11z"/>
</g>
</svg>
